# xmcd
#
# Track frame offsets:
#	150
#	17693
#	35954
#	51202
#	62239
#	76407
#	90836
#	104203
#	118072
#	133560
#	150302
#
# Disc length: 2240 seconds
#
# Revision: 0
# Processed by: cddbd v1.4PL0 Copyright (c) Steve Scherf et al.
# Submitted via: dBpowerAMP V4.0
#
DISCID=8e08be0b
DTITLE=Tin Rooster - These Days
DYEAR=2003
DGENRE=Alternative
TTITLE0=Fall In Love Again
TTITLE1=Just Like Rain
TTITLE2=Sara Jean
TTITLE3=Hollywood Blvd
TTITLE4=These Days
TTITLE5=Yeah Yeah
TTITLE6=Anybody Seen My Life?
TTITLE7=Affair Of The Heart
TTITLE8=I Will
TTITLE9=Beautiful Tragedy
TTITLE10=Simple Things
EXTD=The CD is called These Days, the musicians are from S. Cal, Orange County \nNick Ashton, singer songwriter,Max Bennett,Bass,David Owens Drums, Dennis Caplinger Banjo,Fiddle, Mandolin,\nMembers of Joni Mitchell,FRank Zappa, and Lion King pproduction
EXTD=amazing musicians.
EXTT0=
EXTT1=
EXTT2=
EXTT3=
EXTT4=
EXTT5=
EXTT6=
EXTT7=
EXTT8=
EXTT9=
EXTT10=
PLAYORDER=
